<?xml version="1.0" ?><svg height="96" id="svg2408" inkscape:version="0.48.2 r9819" sodipodi:docname="folder-network.svg" version="1.0" width="96" xmlns="http://www.w3.org/2000/svg" xmlns:cc="http://creativecommons.org/ns#" xmlns:dc="http://purl.org/dc/elements/1.1/" xmlns:inkscape="http://www.inkscape.org/namespaces/inkscape" xmlns:rdf="http://www.w3.org/1999/02/22-rdf-syntax-ns#" xmlns:sodipodi="http://sodipodi.sourceforge.net/DTD/sodipodi-0.dtd" xmlns:svg="http://www.w3.org/2000/svg" xmlns:xlink="http://www.w3.org/1999/xlink"><sodipodi:namedview bordercolor="#666666" borderopacity="1" gridtolerance="10" guidetolerance="10" id="namedview70" objecttolerance="10" pagecolor="#ffffff" showgrid="false" showguides="true"/><defs id="defs2410"><linearGradient id="linearGradient3874"><stop id="stop3876" offset="0" style="stop-color:#000000;stop-opacity:1;"/><stop id="stop3878" offset="1" style="stop-color:#000000;stop-opacity:0;"/></linearGradient><linearGradient id="linearGradient4091"><stop id="stop4093" offset="0" style="stop-color:#ffffff;stop-opacity:1;"/><stop id="stop4099" offset="0.80000001" style="stop-color:#ffffff;stop-opacity:1;"/><stop id="stop4095" offset="1" style="stop-color:#ffffff;stop-opacity:0;"/></linearGradient><linearGradient id="linearGradient4188"><stop id="stop4190" offset="0" style="stop-color:#ffffff;stop-opacity:0;"/><stop id="stop4198" offset="0.15000001" style="stop-color:#ffffff;stop-opacity:1;"/><stop id="stop4196" offset="0.85000002" style="stop-color:#ffffff;stop-opacity:1;"/><stop id="stop4192" offset="1" style="stop-color:#ffffff;stop-opacity:0;"/></linearGradient><linearGradient id="linearGradient3888"><stop id="stop3890" offset="0" style="stop-color:#ffffff;stop-opacity:1;"/><stop id="stop3892" offset="1" style="stop-color:#ffffff;stop-opacity:0;"/></linearGradient><linearGradient gradientTransform="scale(1.0058652,0.994169)" gradientUnits="userSpaceOnUse" id="ButtonShadow" x1="45.447727" x2="45.447727" y1="92.539597" y2="7.0165396"><stop id="stop3750" offset="0" style="stop-color:#000000;stop-opacity:1"/><stop id="stop3752" offset="1" style="stop-color:#000000;stop-opacity:0.58823532"/></linearGradient><filter color-interpolation-filters="sRGB" id="filter3174"><feGaussianBlur id="feGaussianBlur3176" stdDeviation="1.71"/></filter><linearGradient gradientTransform="translate(6,-89.50005)" gradientUnits="userSpaceOnUse" id="linearGradient3050-6" spreadMethod="pad" x1="32.251045" x2="32.251045" y1="6.1317058" y2="90.238678"/><linearGradient gradientUnits="userSpaceOnUse" id="gradient4-1" spreadMethod="pad" x1="32.251045" x2="32.251045" y1="6.1317058" y2="90.238678"><stop id="stop27-0" offset="0.00000000000" stop-color="#000000" stop-opacity="1.00000000000"/><stop id="stop29-6" offset="1.00000000000" stop-color="#000000" stop-opacity="0.58823529412"/></linearGradient><linearGradient gradientTransform="matrix(1.0058652,0,0,0.99416905,5,-90.50005)" gradientUnits="userSpaceOnUse" id="linearGradient3053-3" spreadMethod="pad" x1="32.062981" x2="32.062981" y1="6.1676679" y2="90.767815"/><linearGradient gradientTransform="scale(1.0058652,0.99416905)" gradientUnits="userSpaceOnUse" id="gradient3-2" spreadMethod="pad" x1="32.062981" x2="32.062981" y1="6.1676679" y2="90.767815"><stop id="stop22-0" offset="0.00000000000" stop-color="#000000" stop-opacity="1.00000000000"/><stop id="stop24-6" offset="1.00000000000" stop-color="#000000" stop-opacity="0.58823529412"/></linearGradient><linearGradient gradientTransform="matrix(1.0057307,0,0,-0.99430195,4,91.50005)" gradientUnits="userSpaceOnUse" id="linearGradient3056-1" spreadMethod="pad" x1="32.067265" x2="32.067265" y1="6.1668468" y2="90.756142"/><linearGradient gradientTransform="scale(1.0057307,0.99430195)" gradientUnits="userSpaceOnUse" id="gradient2-5" spreadMethod="pad" x1="32.067265" x2="32.067265" y1="6.1668468" y2="90.756142"><stop id="stop17-5" offset="0.00000000000" stop-color="#000000" stop-opacity="1.00000000000"/><stop id="stop19-4" offset="1.00000000000" stop-color="#000000" stop-opacity="0.58823529412"/></linearGradient><linearGradient gradientTransform="matrix(1.0055984,0,0,-0.9944328,2.96875,92.53125)" gradientUnits="userSpaceOnUse" id="linearGradient3059-7" spreadMethod="pad" x1="32.071472" x2="32.071472" y1="6.1660314" y2="90.744209"/><linearGradient gradientTransform="scale(1.0055984,0.9944328)" gradientUnits="userSpaceOnUse" id="gradient1-6" spreadMethod="pad" x1="32.071472" x2="32.071472" y1="6.1660314" y2="90.744209"><stop id="stop12-5" offset="0.00000000000" stop-color="#000000" stop-opacity="1.00000000000"/><stop id="stop14-6" offset="1.00000000000" stop-color="#000000" stop-opacity="0.58823529412"/></linearGradient><linearGradient gradientTransform="scale(1.0054757,0.99455408)" gradientUnits="userSpaceOnUse" id="gradient0-3" spreadMethod="pad" x1="32.07542" x2="32.07542" y1="6.1652875" y2="90.732689"><stop id="stop7-7" offset="0.00000000000" stop-color="#000000" stop-opacity="1.00000000000"/><stop id="stop9-4" offset="1.00000000000" stop-color="#000000" stop-opacity="0.58823529412"/></linearGradient><linearGradient gradientTransform="matrix(1.0054757,0,0,-0.99455408,1.96875,93.53125)" gradientUnits="userSpaceOnUse" id="linearGradient3216" spreadMethod="pad" x1="32.07542" x2="32.07542" y1="6.1652875" y2="90.732689"/><linearGradient id="linearGradient3832"><stop id="stop3834" offset="0" style="stop-color:#000000;stop-opacity:1;"/><stop id="stop3842" offset="0.05" style="stop-color:#ffffff;stop-opacity:1;"/><stop id="stop3846" offset="0.1" style="stop-color:#000000;stop-opacity:1;"/><stop id="stop3840" offset="0.5" style="stop-color:#000000;stop-opacity:0.49803922;"/><stop id="stop3844" offset="0.89999998" style="stop-color:#000000;stop-opacity:1;"/><stop id="stop3848" offset="0.94999999" style="stop-color:#ffffff;stop-opacity:1;"/><stop id="stop3836" offset="1" style="stop-color:#000000;stop-opacity:1;"/></linearGradient><linearGradient gradientUnits="userSpaceOnUse" id="linearGradient4025" x1="72.875" x2="72.875" y1="68.71875" y2="77.34375"/><linearGradient id="linearGradient4144-8"><stop id="stop4146-4" offset="0" style="stop-color:#dddddd;stop-opacity:1;"/><stop id="stop4152-5" offset="0.64999998" style="stop-color:#989898;stop-opacity:1;"/><stop id="stop4148-0" offset="1" style="stop-color:#eaeaea;stop-opacity:1;"/></linearGradient><linearGradient gradientUnits="userSpaceOnUse" id="linearGradient3205" x1="-56.230446" x2="-56.230446" y1="5.5" y2="69.53125"/><linearGradient gradientTransform="translate(-200,0)" gradientUnits="userSpaceOnUse" id="linearGradient3207" x1="106" x2="180" y1="77.51565" y2="77.51565"/><linearGradient gradientTransform="translate(0,-0.9843498)" gradientUnits="userSpaceOnUse" id="linearGradient3209" x1="-94" x2="-10.187523" y1="82.984398" y2="82.984398"/><radialGradient cx="48" cy="-27" fx="48" fy="-27" gradientTransform="matrix(-1.0721726,0,0,-0.87502024,-0.53571,-19.125546)" gradientUnits="userSpaceOnUse" id="radialGradient3211" r="42"/><linearGradient gradientTransform="translate(0,-0.9843498)" gradientUnits="userSpaceOnUse" id="linearGradient3213" x1="-94" x2="-20" y1="82.984398" y2="82.984398"/><linearGradient gradientTransform="translate(-100,0)" gradientUnits="userSpaceOnUse" id="linearGradient3215" x1="70.030853" x2="89.473785" y1="82" y2="82"/><linearGradient gradientUnits="userSpaceOnUse" id="linearGradient4863" x1="112.09375" x2="183.90625" y1="76.609375" y2="76.609375"/><linearGradient id="linearGradient4188-5"><stop id="stop4190-0" offset="0" style="stop-color:#ffffff;stop-opacity:0;"/><stop id="stop4198-3" offset="0.15000001" style="stop-color:#ffffff;stop-opacity:1;"/><stop id="stop4196-6" offset="0.85000002" style="stop-color:#ffffff;stop-opacity:1;"/><stop id="stop4192-1" offset="1" style="stop-color:#ffffff;stop-opacity:0;"/></linearGradient><linearGradient gradientUnits="userSpaceOnUse" id="linearGradient3117" x1="-56.230446" x2="-56.230446" y1="5.5" y2="69.53125"/><linearGradient gradientTransform="translate(-200,0)" gradientUnits="userSpaceOnUse" id="linearGradient3119" x1="106" x2="180" y1="77.51565" y2="77.51565"/><linearGradient gradientTransform="translate(0,-0.9843498)" gradientUnits="userSpaceOnUse" id="linearGradient3121" x1="-94" x2="-10.187523" y1="82.984398" y2="82.984398"/><radialGradient cx="48" cy="-27" fx="48" fy="-27" gradientTransform="matrix(-1.0721726,0,0,-0.87502024,-0.53571,-19.125546)" gradientUnits="userSpaceOnUse" id="radialGradient3123" r="42"/><linearGradient gradientTransform="translate(0,-0.9843498)" gradientUnits="userSpaceOnUse" id="linearGradient3125" x1="-94" x2="-20" y1="82.984398" y2="82.984398"/><linearGradient gradientTransform="translate(-100,0)" gradientUnits="userSpaceOnUse" id="linearGradient3127" x1="70.030853" x2="89.473785" y1="82" y2="82"/><linearGradient gradientTransform="translate(100,0)" gradientUnits="userSpaceOnUse" id="linearGradient3131" x1="70.030853" x2="89.473785" y1="82" y2="82"/><linearGradient gradientTransform="translate(200,-0.9843498)" gradientUnits="userSpaceOnUse" id="linearGradient3134" x1="-94" x2="-20" y1="82.984398" y2="82.984398"/><radialGradient cx="48" cy="-27" fx="48" fy="-27" gradientTransform="matrix(-1.0721726,0,0,-0.87502024,199.46429,-19.125546)" gradientUnits="userSpaceOnUse" id="radialGradient3139" r="42"/><linearGradient gradientTransform="translate(200,-0.9843498)" gradientUnits="userSpaceOnUse" id="linearGradient3143" x1="-94" x2="-10.187523" y1="82.984398" y2="82.984398"/><linearGradient gradientUnits="userSpaceOnUse" id="linearGradient3151" x1="106" x2="180" y1="77.51565" y2="77.51565"/><linearGradient gradientTransform="translate(200,0)" gradientUnits="userSpaceOnUse" id="linearGradient3154" x1="-56.230446" x2="-56.230446" y1="5.5" y2="69.53125"/><linearGradient gradientTransform="translate(200,0)" gradientUnits="userSpaceOnUse" id="linearGradient3173" x1="-56.230446" x2="-56.230446" y1="5.5" y2="69.53125"/><linearGradient gradientUnits="userSpaceOnUse" id="linearGradient3175" x1="106" x2="180" y1="77.51565" y2="77.51565"/><linearGradient gradientTransform="translate(200,-0.9843498)" gradientUnits="userSpaceOnUse" id="linearGradient3177" x1="-94" x2="-10.187523" y1="82.984398" y2="82.984398"/><radialGradient cx="48" cy="-27" fx="48" fy="-27" gradientTransform="matrix(-1.0721726,0,0,-0.87502024,199.46429,-19.125546)" gradientUnits="userSpaceOnUse" id="radialGradient3179" r="42"/><linearGradient gradientTransform="translate(200,-0.9843498)" gradientUnits="userSpaceOnUse" id="linearGradient3181" x1="-94" x2="-20" y1="82.984398" y2="82.984398"/><linearGradient gradientTransform="translate(100,0)" gradientUnits="userSpaceOnUse" id="linearGradient3183" x1="70.030853" x2="89.473785" y1="82" y2="82"/></defs><g id="layer2" style="display:none"><rect height="85" id="rect3745" rx="6" ry="6" style="opacity:0.9;fill:url(#ButtonShadow);fill-opacity:1;fill-rule:nonzero;stroke:none;filter:url(#filter3174)" width="86" x="5" y="7"/></g><g id="g3943"><path d="m 11.99995,93.53125 c -5.51104,0 -10.0312,-4.52016 -10.0312,-10.0312 l 0,-71 c 0,-5.5111 4.52016,-10.0313 10.0312,-10.0313 l 72,0 c 5.5111,0 10.0313,4.5202 10.0313,10.0313 l 0,71 c 0,5.51104 -4.5202,10.0312 -10.0313,10.0312 z" id="path3786-4" style="opacity:0.07999998;fill:url(#linearGradient3216)"/><path d="m 12,92.53125 c -4.97163,0 -9.03125,-4.05962 -9.03125,-9.03125 l 0,-70.99995 c 0,-4.9717 4.05962,-9.0313 9.03125,-9.0313 l 71.99995,0 c 4.9717,0 9.0313,4.0596 9.0313,9.0313 l 0,70.99995 c 0,4.97163 -4.0596,9.03125 -9.0313,9.03125 z" id="path3778-5" style="opacity:0.1;fill:url(#linearGradient3059-7)"/><path d="m 12,91.50005 c -4.40913,0 -8,-3.59087 -8,-8 l 0,-71 c 0,-4.4091 3.59087,-8 8,-8 l 72,0 c 4.4091,0 8,3.5909 8,8 l 0,71 c 0,4.40913 -3.5909,8 -8,8 z" id="path3770-2" style="opacity:0.2;fill:url(#linearGradient3056-1)"/><rect height="85" id="rect3723-5" rx="7" ry="7" style="opacity:0.3;fill:url(#linearGradient3053-3)" transform="scale(1,-1)" width="86" x="5" y="-90.500046"/><rect height="84" id="rect3716-4" rx="6" ry="6" style="opacity:0.4;fill:url(#linearGradient3050-6)" transform="scale(1,-1)" width="84" x="6" y="-89.500046"/></g><path d="m 84,4.5000496 -72,0 c -3.324,0 -6,2.676 -6,6.0000004 l 0,72 c 0,3.324 2.676,6 6,6 l 72,0 c 3.324,0 6,-2.676 6,-6 l 0,-72 C 90,7.1760496 87.324,4.5000496 84,4.5000496 z" id="rect2419-1" style="fill:#202020;fill-opacity:1;fill-rule:nonzero;stroke:none;display:inline"/><g id="g4855" transform="translate(-98,0)"><path d="m 117.21875,8.59375 c -3.921,0 -7.125,3.203999 -7.125,7.125 l 0,60.5625 c 0,3.921001 3.204,7.125 7.125,7.125 l 61.5625,0 c 3.921,0 7.125,-3.203999 7.125,-7.125 l 0,-60.5625 c 0,-3.921001 -3.204,-7.125 -7.125,-7.125 z" id="path4843" style="font-size:medium;font-style:normal;font-variant:normal;font-weight:normal;font-stretch:normal;text-indent:0;text-align:start;text-decoration:none;line-height:normal;letter-spacing:normal;word-spacing:normal;text-transform:none;direction:ltr;block-progression:tb;writing-mode:lr-tb;text-anchor:start;baseline-shift:baseline;opacity:0.1;color:#000000;fill:#000000;fill-opacity:1;fill-rule:nonzero;stroke:none;stroke-width:2;marker:none;visibility:visible;display:inline;overflow:visible;enable-background:accumulate;font-family:Sans;-inkscape-font-specification:Sans"/><path d="m 117.21875,8.59375 c -3.37935,0 -6.125,2.745652 -6.125,6.125 l 0,61.5625 c 0,3.379348 2.74565,6.125 6.125,6.125 l 61.5625,0 c 3.37935,0 6.125,-2.745652 6.125,-6.125 l 0,-61.5625 c 0,-3.379348 -2.74565,-6.125 -6.125,-6.125 z" id="path4849" style="font-size:medium;font-style:normal;font-variant:normal;font-weight:normal;font-stretch:normal;text-indent:0;text-align:start;text-decoration:none;line-height:normal;letter-spacing:normal;word-spacing:normal;text-transform:none;direction:ltr;block-progression:tb;writing-mode:lr-tb;text-anchor:start;baseline-shift:baseline;opacity:0.2;color:#000000;fill:#000000;fill-opacity:1;fill-rule:nonzero;stroke:none;stroke-width:2;marker:none;visibility:visible;display:inline;overflow:visible;enable-background:accumulate;font-family:Sans;-inkscape-font-specification:Sans"/><path d="m 178.78677,9.582146 -61.57354,0 c -2.84265,0 -5.13113,2.288484 -5.13113,5.13113 l 0,61.573548 c 0,2.842646 2.28848,5.13113 5.13113,5.13113 l 61.57354,0 c 2.84265,0 5.13113,-2.288484 5.13113,-5.13113 l 0,-61.573548 c 0,-2.842646 -2.28848,-5.13113 -5.13113,-5.13113 z" id="path4710" style="fill:#ececec;fill-opacity:1;fill-rule:nonzero;stroke:none;display:inline"/><path d="m 112.09375,74.8125 0,1.46875 c 0,2.842646 2.28235,5.125 5.125,5.125 l 61.5625,0 c 2.84265,0 5.125,-2.282354 5.125,-5.125 l 0,-1.46875 c -0.26183,2.593688 -2.46002,4.59375 -5.125,4.59375 l -61.5625,0 c -2.66498,0 -4.86317,-2.000062 -5.125,-4.59375 z" id="path4810" style="opacity:0.1;fill:#000000;fill-opacity:1;fill-rule:nonzero;stroke:none;display:inline"/><path d="m 112.09375,73.8125 0,1 c 0.26183,2.593688 2.46002,4.59375 5.125,4.59375 l 61.5625,0 c 2.66498,0 4.86317,-2.000062 5.125,-4.59375 l 0,-1 c -0.26183,2.593688 -2.46002,4.59375 -5.125,4.59375 l -61.5625,0 c -2.66498,0 -4.86317,-2.000062 -5.125,-4.59375 z" id="path4815" style="opacity:0.4;fill:url(#linearGradient4863);fill-opacity:1;fill-rule:nonzero;stroke:none;display:inline"/><path d="m 116.6875,9.59375 c -2.59369,0.2618304 -4.59375,2.460019 -4.59375,5.125 l 0,0.46875 c 0.26183,-2.593688 2.46002,-4.59375 5.125,-4.59375 l 61.5625,0 c 2.66498,0 4.86317,2.000062 5.125,4.59375 l 0,-0.46875 c 0,-2.842646 -2.28235,-5.125 -5.125,-5.125 l -61.5625,0 c -0.17767,0 -0.35834,-0.017455 -0.53125,0 z" id="path4820" style="opacity:0.5;fill:#ffffff;fill-opacity:1;fill-rule:nonzero;stroke:none;display:inline"/></g><path d="m 12,4.5 c -3.324,0 -6,2.6759996 -6,6 l 0,70 c 0,3.324 2.676,6 6,6 l 62,0 c 3.324,0 6,-2.676 6,-6 l 0,-38.1875 6.875,-4.125 C 88.74566,37.173813 90,35.1915 90,32.90625 L 90,10.5 c 0,-3.3240004 -2.676,-6 -6,-6 z" id="path3262" style="fill:#333333;fill-opacity:1;fill-rule:nonzero;stroke:none;display:inline"/><g id="g4031"><rect height="65" id="rect4494" style="opacity:0.15;color:#000000;fill:#ffffff;fill-opacity:1;fill-rule:nonzero;stroke:none;stroke-width:5;marker:none;visibility:visible;display:inline;overflow:visible;enable-background:accumulate" width="1" x="9" y="10"/><rect height="65" id="rect4496" style="opacity:0.25;color:#000000;fill:#000000;fill-opacity:1;fill-rule:nonzero;stroke:none;stroke-width:5;marker:none;visibility:visible;display:inline;overflow:visible;enable-background:accumulate" width="1" x="10" y="10"/><rect height="65" id="rect4498" style="opacity:0.15;color:#000000;fill:#ffffff;fill-opacity:1;fill-rule:nonzero;stroke:none;stroke-width:5;marker:none;visibility:visible;display:inline;overflow:visible;enable-background:accumulate" width="1" x="13" y="10"/><rect height="65" id="rect4500" style="opacity:0.25;color:#000000;fill:#000000;fill-opacity:1;fill-rule:nonzero;stroke:none;stroke-width:5;marker:none;visibility:visible;display:inline;overflow:visible;enable-background:accumulate" width="1" x="14" y="10"/><path d="m 72.875,68.71875 c -2.51184,0 -4.5625,1.93878 -4.5625,4.3125 0,2.37372 2.05066,4.3125 4.5625,4.3125 2.51184,0 4.5625,-1.93878 4.5625,-4.3125 0,-2.37372 -2.05066,-4.3125 -4.5625,-4.3125 z m 0,1.34375 c 1.73733,0 3.15625,1.326959 3.15625,2.96875 0,1.641792 -1.41892,2.96875 -3.15625,2.96875 -1.73733,0 -3.15625,-1.326958 -3.15625,-2.96875 0,-1.641791 1.41892,-2.96875 3.15625,-2.96875 z" id="path4130" style="color:#000000;fill:url(#linearGradient4025);fill-opacity:1;fill-rule:nonzero;stroke:none;stroke-width:5;marker:none;visibility:visible;display:inline;overflow:visible;enable-background:accumulate"/><path d="m 72.875,70.0625 c -1.73733,0 -3.15625,1.326959 -3.15625,2.96875 0,0.55226 0.19112,1.056911 0.46875,1.5 0.54773,-0.874152 1.53457,-1.46875 2.6875,-1.46875 1.15293,0 2.13977,0.594598 2.6875,1.46875 0.27763,-0.443089 0.46875,-0.94774 0.46875,-1.5 0,-1.641791 -1.41892,-2.96875 -3.15625,-2.96875 z" id="path4132" style="opacity:0.8;color:#000000;fill:#000000;fill-opacity:1;fill-rule:nonzero;stroke:none;stroke-width:5;marker:none;visibility:visible;display:inline;overflow:visible;enable-background:accumulate"/><path d="m 72.875,68.71875 c -2.51184,0 -4.5625,1.93878 -4.5625,4.3125 0,0.08494 0.0261,0.166247 0.0313,0.25 0.13954,-2.256915 2.10928,-4.0625 4.53125,-4.0625 2.42197,0 4.39171,1.805585 4.53125,4.0625 0.005,-0.08375 0.0313,-0.165064 0.0313,-0.25 0,-2.37372 -2.05066,-4.3125 -4.5625,-4.3125 z m -3.125,4.5625 c -0.008,0.08469 -0.0313,0.163412 -0.0313,0.25 0,1.641792 1.41892,2.96875 3.15625,2.96875 1.73733,0 3.15625,-1.326958 3.15625,-2.96875 0,-0.08659 -0.0235,-0.165312 -0.0313,-0.25 C 75.86113,74.802331 74.5207,76 72.875,76 71.2293,76 69.88887,74.802331 69.75,73.28125 z" id="path4154" style="opacity:0.2;color:#000000;fill:#ffffff;fill-opacity:1;fill-rule:nonzero;stroke:none;stroke-width:5;marker:none;visibility:visible;display:inline;overflow:visible;enable-background:accumulate"/><path d="m 72.875,73.0625 c -1.15293,0 -2.13977,0.594598 -2.6875,1.46875 C 70.73523,75.405402 71.72207,76 72.875,76 74.02793,76 75.01477,75.405402 75.5625,74.53125 75.01477,73.657098 74.02793,73.0625 72.875,73.0625 z" id="path4170" style="opacity:0.7;color:#000000;fill:#000000;fill-opacity:1;fill-rule:nonzero;stroke:none;stroke-width:5;marker:none;visibility:visible;display:inline;overflow:visible;enable-background:accumulate"/><path d="m 72.875,69.5625 c -1.73733,0 -3.15625,1.326959 -3.15625,2.96875 0,0.08659 0.0235,0.165312 0.0313,0.25 0.13887,-1.52108 1.4793,-2.71875 3.125,-2.71875 1.6457,0 2.98613,1.19767 3.125,2.71875 0.008,-0.08469 0.0313,-0.163412 0.0313,-0.25 0,-1.641791 -1.41892,-2.96875 -3.15625,-2.96875 z m -4.53125,3.21875 c -0.005,0.08375 -0.0313,0.165064 -0.0313,0.25 0,2.37372 2.05066,4.3125 4.5625,4.3125 2.51184,0 4.5625,-1.93878 4.5625,-4.3125 0,-0.08494 -0.0261,-0.166247 -0.0313,-0.25 -0.13954,2.256915 -2.10928,4.0625 -4.53125,4.0625 -2.42197,0 -4.39171,-1.805585 -4.53125,-4.0625 z" id="path4175" style="opacity:0.2;color:#000000;fill:#000000;fill-opacity:1;fill-rule:nonzero;stroke:none;stroke-width:5;marker:none;visibility:visible;display:inline;overflow:visible;enable-background:accumulate"/><path d="M 80.875,8.59375 80.34375,9.9375 80,9 l 0,22.21875 0.34375,-0.9375 0.53125,1.34375 0.53125,-1.34375 0.53125,1.3125 0.5,-1.3125 0.5,1.3125 0.53125,-1.3125 L 84,31.625 84.5,30.28125 85.03125,31.625 85.5625,30.28125 86,31.40625 86,8.8125 85.5625,9.9375 85.03125,8.59375 84.5,9.9375 84,8.59375 83.46875,9.9375 82.9375,8.625 82.4375,9.9375 81.9375,8.625 81.40625,9.9375 80.875,8.59375 z" id="path3825" style="opacity:0.3;fill:#ffffff;fill-opacity:1;fill-rule:nonzero;stroke:none;display:inline"/><path d="M 80.875,8.59375 80.34375,9.9375 80,9 l 0,0.5 0.34375,0.9375 0.53125,-1.34375 0.53125,1.34375 0.53125,-1.3125 0.5,1.3125 0.5,-1.3125 0.53125,1.3125 L 84,9.09375 84.5,10.4375 85.03125,9.09375 85.5625,10.4375 86,9.3125 86,8.8125 85.5625,9.9375 85.03125,8.59375 84.5,9.9375 84,8.59375 83.46875,9.9375 82.9375,8.625 82.4375,9.9375 81.9375,8.625 81.40625,9.9375 80.875,8.59375 z" id="path4207" style="opacity:0.2;fill:#ffffff;fill-opacity:1;fill-rule:nonzero;stroke:none;display:inline"/><path d="M 80.34375,29.78125 80,30.71875 l 0,0.5 0.34375,-0.9375 0.53125,1.34375 0.53125,-1.34375 0.53125,1.3125 0.5,-1.3125 0.5,1.3125 0.53125,-1.3125 L 84,31.625 l 0.5,-1.34375 0.53125,1.34375 0.53125,-1.34375 0.4375,1.125 0,-0.5 -0.4375,-1.125 L 85.03125,31.125 84.5,29.78125 84,31.125 l -0.53125,-1.34375 -0.53125,1.3125 -0.5,-1.3125 -0.5,1.3125 -0.53125,-1.3125 L 80.875,31.125 80.34375,29.78125 z" id="path4212" style="opacity:0.15;fill:#000000;fill-opacity:1;fill-rule:nonzero;stroke:none;display:inline"/></g><g id="g3900" transform="translate(-80,0)"><path d="m 108.65625,21.71875 c -3.4739,0 -6.28125,2.845701 -6.28125,6.3125 l 0,29.9375 c 0,3.466799 2.80735,6.3125 6.28125,6.3125 l 34.375,0 c 3.4739,0 6.28125,-2.845701 6.28125,-6.3125 l 0,-29.9375 c 0,-3.466799 -2.80735,-6.3125 -6.28125,-6.3125 z m 3.53125,8.21875 27.3125,0 0,18.125 -4.625,0 0,4.3125 -4.1875,0 0,4.28125 -9.6875,0 0,-4.28125 -4.1875,0 0,-4.3125 -4.625,0 z m 1.5625,0.9375 0,6.5625 c 0,1.464655 1.14389,2.75 2.625,2.75 0.74378,0 1.40902,-0.345381 1.84375,-0.84375 0.29076,-0.333318 0.40279,-0.775981 0.53125,-1.1875 0.32335,1.107289 1.13775,2.03125 2.34375,2.03125 0.74378,0 1.43155,-0.349327 1.875,-0.84375 0.29659,-0.330679 0.39739,-0.772009 0.53125,-1.1875 0.32335,1.107289 1.13775,2.03125 2.34375,2.03125 1.22041,0 2.06378,-0.935899 2.375,-2.0625 0.32096,1.129901 1.1572,2.0625 2.375,2.0625 1.10641,0 2.1353,-0.695462 2.5,-1.71875 0.40538,0.946122 1.13271,1.71875 2.21875,1.71875 1.48111,0 2.625,-1.285345 2.625,-2.75 l 0,-6.5625 z" id="path3124" style="font-size:medium;font-style:normal;font-variant:normal;font-weight:normal;font-stretch:normal;text-indent:0;text-align:start;text-decoration:none;line-height:normal;letter-spacing:normal;word-spacing:normal;text-transform:none;direction:ltr;block-progression:tb;writing-mode:lr-tb;text-anchor:start;baseline-shift:baseline;opacity:0.2;color:#000000;fill:#000000;fill-opacity:1;fill-rule:nonzero;stroke:none;stroke-width:2;marker:none;visibility:visible;display:inline;overflow:visible;enable-background:accumulate;font-family:Sans;-inkscape-font-specification:Sans"/><path d="m 108.65625,22.71875 c -2.93307,0 -5.28125,2.379425 -5.28125,5.3125 l 0,29.9375 c 0,2.933075 2.34818,5.3125 5.28125,5.3125 l 2.09375,0 7.25,0 15.6875,0 7.25,0 2.09375,0 c 2.93307,0 5.28125,-2.379425 5.28125,-5.3125 l 0,-29.9375 c 0,-2.933075 -2.34818,-5.3125 -5.28125,-5.3125 z m 2.53125,6.221875 29.3125,0 0,20.125 -4.625,0 0,4.3125 -4.1875,0 0,4.28125 -11.6875,0 0,-4.28125 -4.1875,0 0,-4.3125 -4.625,0 z m 3.5625,2.9375 0,5.5625 c 0,0.96704 0.72182,1.75 1.625,1.75 0.90319,0 1.49533,-0.791692 1.625,-1.75 l 0,-5.5625 z m 4.71875,0 0,5.5625 c 0,0.96704 0.72182,1.75 1.625,1.75 0.90318,0 1.52658,-0.791692 1.65625,-1.75 l 0,-5.5625 z m 4.75,0 0,5.5625 c 0,0.96704 0.72182,1.75 1.625,1.75 0.90318,0 1.625,-0.78296 1.625,-1.75 l 0,-5.5625 z m 4.71875,0 0,5.5625 c 0,0.96704 0.75307,1.75 1.65625,1.75 0.90318,0 1.75466,-0.791692 1.625,-1.75 l 0,-5.5625 z m 4.75,0 0,5.5625 c 0,0.96704 0.72181,1.75 1.625,1.75 0.90318,0 1.625,-0.78296 1.625,-1.75 l 0,-5.5625 z" id="rect4050" style="opacity:0.85;color:#000000;fill:#ffffff;fill-opacity:1;fill-rule:nonzero;stroke:none;stroke-width:40;marker:none;visibility:visible;display:inline;overflow:visible;enable-background:accumulate"/><path d="m 108.65625,22.71875 c -2.93307,0 -5.28125,2.379425 -5.28125,5.3125 l 0,3 c 0,-2.933075 2.34818,-5.3125 5.28125,-5.3125 l 34.375,0 c 2.93307,0 5.28125,2.379425 5.28125,5.3125 l 0,-3 c 0,-2.933075 -2.34818,-5.3125 -5.28125,-5.3125 l -34.375,0 z m 6.09375,9.21875 0,2.9375 3.25,0 0,-2.9375 -3.25,0 z m 4.71875,0 0,2.9375 3.28125,0 0,-2.9375 -3.28125,0 z m 4.75,0 0,2.9375 3.25,0 0,-2.9375 -3.25,0 z m 4.71875,0 0,2.9375 3.28125,0 0,-2.9375 -3.28125,0 z m 4.75,0 0,2.9375 3.25,0 0,-2.9375 -3.25,0 z m -22.5,17.125 0,3 4.625,0 0,-3 -4.625,0 z m 24.6875,0 0,3 4.625,0 0,-3 -4.625,0 z m -20.0625,4.3125 0,3 4.1875,0 0,-3 -4.1875,0 z m 15.875,0 0,3 4.1875,0 0,-3 -4.1875,0 z M 120,57.65625 l 0,3 11.6875,0 0,-3 -11.6875,0 z" id="path4134" style="opacity:0.1;color:#000000;fill:#000000;fill-opacity:1;fill-rule:nonzero;stroke:none;stroke-width:40;marker:none;visibility:visible;display:inline;overflow:visible;enable-background:accumulate"/><path d="m 108.65625,22.71875 c -2.93307,0 -5.28125,2.379425 -5.28125,5.3125 l 0,2 c 0,-2.933075 2.34818,-5.3125 5.28125,-5.3125 l 34.375,0 c 2.93307,0 5.28125,2.379425 5.28125,5.3125 l 0,-2 c 0,-2.933075 -2.34818,-5.3125 -5.28125,-5.3125 l -34.375,0 z m 6.09375,9.15625 0,2 3.25,0 0,-2 -3.25,0 z m 4.71875,0 0,2 3.28125,0 0,-2 -3.28125,0 z m 4.75,0 0,2 3.25,0 0,-2 -3.25,0 z m 4.71875,0 0,2 3.28125,0 0,-2 -3.28125,0 z m 4.75,0 0,2 3.25,0 0,-2 -3.25,0 z m -22.5,17.1875 0,2 4.625,0 0,-2 -4.625,0 z m 24.6875,0 0,2 4.625,0 0,-2 -4.625,0 z m -20.0625,4.3125 0,2 4.1875,0 0,-2 -4.1875,0 z m 15.875,0 0,2 4.1875,0 0,-2 -4.1875,0 z M 120,57.65625 l 0,2 11.6875,0 0,-2 -11.6875,0 z" id="path4136" style="opacity:0.2;color:#000000;fill:#000000;fill-opacity:1;fill-rule:nonzero;stroke:none;stroke-width:40;marker:none;visibility:visible;display:inline;overflow:visible;enable-background:accumulate"/><path d="m 108.65625,22.71875 c -2.93307,0 -5.28125,2.379425 -5.28125,5.3125 l 0,1 c 0,-2.933075 2.34818,-5.3125 5.28125,-5.3125 l 34.375,0 c 2.93307,0 5.28125,2.379425 5.28125,5.3125 l 0,-1 c 0,-2.933075 -2.34818,-5.3125 -5.28125,-5.3125 l -34.375,0 z m 6.09375,9.15625 0,1 3.25,0 0,-1 -3.25,0 z m 4.71875,0 0,1 3.28125,0 0,-1 -3.28125,0 z m 4.75,0 0,1 3.25,0 0,-1 -3.25,0 z m 4.71875,0 0,1 3.28125,0 0,-1 -3.28125,0 z m 4.75,0 0,1 3.25,0 0,-1 -3.25,0 z m -22.5,17.1875 0,1 4.625,0 0,-1 -4.625,0 z m 24.6875,0 0,1 4.625,0 0,-1 -4.625,0 z m -20.0625,4.3125 0,1 4.1875,0 0,-1 -4.1875,0 z m 15.875,0 0,1 4.1875,0 0,-1 -4.1875,0 z M 120,57.65625 l 0,1 11.6875,0 0,-1 -11.6875,0 z" id="path4138" style="opacity:0.3;color:#000000;fill:#000000;fill-opacity:1;fill-rule:nonzero;stroke:none;stroke-width:40;marker:none;visibility:visible;display:inline;overflow:visible;enable-background:accumulate"/><path d="m 108.65625,21.71875 c -2.93307,0 -5.28125,2.379425 -5.28125,5.3125 l 0,1 c 0,-2.933075 2.34818,-5.3125 5.28125,-5.3125 l 34.375,0 c 2.93307,0 5.28125,2.379425 5.28125,5.3125 l 0,-1 c 0,-2.933075 -2.34818,-5.3125 -5.28125,-5.3125 l -34.375,0 z m 6.09375,9.15625 0,1 3.25,0 0,-1 -3.25,0 z m 4.71875,0 0,1 3.28125,0 0,-1 -3.28125,0 z m 4.75,0 0,1 3.25,0 0,-1 -3.25,0 z m 4.71875,0 0,1 3.28125,0 0,-1 -3.28125,0 z m 4.75,0 0,1 3.25,0 0,-1 -3.25,0 z m -22.5,17.1875 0,1 4.625,0 0,-1 -4.625,0 z m 24.6875,0 0,1 4.625,0 0,-1 -4.625,0 z m -20.0625,4.3125 0,1 4.1875,0 0,-1 -4.1875,0 z m 15.875,0 0,1 4.1875,0 0,-1 -4.1875,0 z M 120,56.65625 l 0,1 11.6875,0 0,-1 -11.6875,0 z" id="path4149" style="opacity:0.5;color:#000000;fill:#000000;fill-opacity:1;fill-rule:nonzero;stroke:none;stroke-width:40;marker:none;visibility:visible;display:inline;overflow:visible;enable-background:accumulate"/><path d="m 111.1875,27.9375 0,1 29.3125,0 0,-1 -29.3125,0 z m 3.5625,8.5 0,1 c 0,0.96704 0.72182,1.75 1.625,1.75 0.90319,0 1.49533,-0.791692 1.625,-1.75 l 0,-1 c -0.12967,0.958308 -0.72181,1.75 -1.625,1.75 -0.90318,0 -1.625,-0.78296 -1.625,-1.75 z m 4.71875,0 0,1 c 0,0.96704 0.72182,1.75 1.625,1.75 0.90318,0 1.52658,-0.791692 1.65625,-1.75 l 0,-1 c -0.12967,0.958308 -0.75307,1.75 -1.65625,1.75 -0.90318,0 -1.625,-0.78296 -1.625,-1.75 z m 4.75,0 0,1 c 0,0.96704 0.72182,1.75 1.625,1.75 0.90318,0 1.625,-0.78296 1.625,-1.75 l 0,-1 c 0,0.96704 -0.72182,1.75 -1.625,1.75 -0.90318,0 -1.625,-0.78296 -1.625,-1.75 z m 4.71875,0 0,1 c 0,0.96704 0.75307,1.75 1.65625,1.75 0.90318,0 1.75466,-0.791692 1.625,-1.75 l 0,-0.65625 c -0.0885,0.793526 -0.83472,1.40625 -1.625,1.40625 -0.90318,0 -1.65625,-0.78296 -1.65625,-1.75 z m 4.75,0 0,1 c 0,0.96704 0.72181,1.75 1.625,1.75 0.90318,0 1.625,-0.78296 1.625,-1.75 l 0,-1 c 0,0.96704 -0.72182,1.75 -1.625,1.75 -0.90319,0 -1.625,-0.78296 -1.625,-1.75 z m -30.3125,20.53125 0,1 c 0,2.933075 2.34818,5.3125 5.28125,5.3125 l 2.09375,0 7.25,0 15.6875,0 7.25,0 2.09375,0 c 2.93307,0 5.28125,-2.379425 5.28125,-5.3125 l 0,-1 c 0,2.933075 -2.34818,5.3125 -5.28125,5.3125 l -2.09375,0 -7.25,0 -15.6875,0 -7.25,0 -2.09375,0 c -2.93307,0 -5.28125,-2.379425 -5.28125,-5.3125 z" id="path4156" style="opacity:0.85;color:#000000;fill:#ffffff;fill-opacity:1;fill-rule:nonzero;stroke:none;stroke-width:40;marker:none;visibility:visible;display:inline;overflow:visible;enable-background:accumulate"/></g><g id="g3156" transform="translate(-100,0)"><path d="m 112,5.5 c -2.7873,0 -5,2.2127028 -5,5 l 0,56.3125 c 1.07066,1.628779 2.89693,2.71875 5,2.71875 l 68,0 0,-25.21875 0,-5 0,-2 6.875,-4.125 c 0.86852,-0.47064 1.58604,-1.147137 2.125,-1.96875 L 189,10.5 c 0,-2.7872972 -2.2127,-5 -5,-5 l -72,0 z m 77,32.71875 c -0.13474,0.205403 -0.28087,0.407435 -0.4375,0.59375 0.16108,-0.189117 0.30071,-0.385228 0.4375,-0.59375 z" id="path3157" style="opacity:0.1;fill:url(#linearGradient3173);fill-opacity:1;fill-rule:nonzero;stroke:none;display:inline"/><path d="m 106,73.51565 0,2 c 0,3.324 2.676,6 6,6 l 62,0 c 3.324,0 6,-2.676 6,-6 l 0,-2 c 0,3.324 -2.676,6 -6,6 l -62,0 c -3.324,0 -6,-2.676 -6,-6 z" id="path3163" style="opacity:0.2;fill:url(#linearGradient3175);fill-opacity:1;fill-rule:nonzero;stroke:none"/><path d="m 190,29.90625 c 0,2.28525 -1.25434,4.267563 -3.125,5.28125 l -6.875,4.125 0,3 6.875,-4.125 C 188.74566,37.173813 190,35.1915 190,32.90625 l 0,-3 z" id="path3167" style="opacity:0.45;fill:#000000;fill-opacity:1;fill-rule:nonzero;stroke:none;display:inline"/><path d="m 190,27.90625 c 0,2.28525 -1.25434,4.267563 -3.125,5.28125 l -6.875,4.125 0,2 6.875,-4.125 C 188.74566,34.173813 190,32.1915 190,29.90625 l 0,-2 z" id="path3169" style="opacity:0.2;fill:#ffffff;fill-opacity:1;fill-rule:nonzero;stroke:none;display:inline"/><path d="m 190,27.90625 c 0,2.28525 -1.25434,4.267563 -3.125,5.28125 l -6.875,4.125 0,2 6.875,-4.125 C 188.74566,34.173813 190,32.1915 190,29.90625 l 0,-2 z" id="path3171" style="opacity:0.05;fill:#ffffff;fill-opacity:1;fill-rule:nonzero;stroke:none;display:inline"/><path d="m 106,75.5 0,2 c 0,3.324 2.676,6 6,6 l 62,0 c 3.324,0 6,-2.676 6,-6 l 0,-2 c 0,3.324 -2.676,6 -6,6 l -62,0 c -3.324,0 -6,-2.676 -6,-6 z" id="path3198" style="opacity:0.25;fill:#000000;fill-opacity:1;fill-rule:nonzero;stroke:none"/><path d="m 106,80.5 0,2 c 0,3.324 2.676,6 6,6 l 72,0 c 3.324,0 6,-2.676 6,-6 l 0,-2 c 0,3.324 -2.676,6 -6,6 l -72,0 c -3.324,0 -6,-2.676 -6,-6 z" id="path3225" style="opacity:0.25;fill:#000000;fill-opacity:1;fill-rule:nonzero;stroke:none"/><path d="m 106,80.5 0,2 c 0,3.324 2.676,6 6,6 l 72,0 c 3.324,0 6,-2.676 6,-6 l 0,-2 c 0,3.324 -2.676,6 -6,6 l -72,0 c -3.324,0 -6,-2.676 -6,-6 z" id="path3227" style="opacity:0.1;fill:url(#linearGradient3177);fill-opacity:1;fill-rule:nonzero;stroke:none"/><path d="m 190,79.53125 c 0,3.324 -2.676,6 -6,6 L 177.28125,85.5 c -0.94168,0.62023 -2.06399,1 -3.28125,1 l 10,0.03125 c 3.324,0 6,-2.676 6,-6 l 0,-1 z" id="path4116" style="opacity:0.15;fill:#ffffff;fill-opacity:1;fill-rule:nonzero;stroke:none"/><path d="m 112,4.5 c -3.324,0 -6,2.6759996 -6,6 l 0,15 1,0 0,-15 c 0,-2.7872972 2.2127,-5 5,-5 l 72,0 c 2.7873,0 5,2.2127028 5,5 l 0,15 1,0 0,-15 c 0,-3.3240004 -2.676,-6 -6,-6 l -72,0 z" id="path3316" style="opacity:0.45;fill:url(#radialGradient3179);fill-opacity:1;fill-rule:nonzero;stroke:none;display:inline"/><path d="m 190,32.90625 c 0,2.28525 -1.25434,4.267563 -3.125,5.28125 L 180,42.3125 180,80.5 c 0,3.324 -2.676,6 -6,6 l 2,0 c 3.324,0 6,-2.676 6,-6 l 0,-38.1875 6.875,-4.125 c 0.40921,-0.221744 0.78146,-0.505024 1.125,-0.8125 l 0,-4.46875 z" id="path4105" style="opacity:0.1;fill:#000000;fill-opacity:1;fill-rule:nonzero;stroke:none;display:inline"/><path d="m 190,37.375 c -0.34354,0.307476 -0.71579,0.590756 -1.125,0.8125 L 182,42.3125 182,80.5 c 0,3.324 -2.676,6 -6,6 l 2,0 c 3.324,0 6,-2.676 6,-6 l 0,-38.1875 6,-3.59375 0,-1.34375 z" id="path4117" style="opacity:0.05;fill:#000000;fill-opacity:1;fill-rule:nonzero;stroke:none;display:inline"/><path d="m 106,75.5 0,2 c 0,3.324 2.676,6 6,6 l 62,0 c 3.324,0 6,-2.676 6,-6 l 0,-2 c 0,3.324 -2.676,6 -6,6 l -62,0 c -3.324,0 -6,-2.676 -6,-6 z" id="path3076" style="opacity:0.1;fill:url(#linearGradient3181);fill-opacity:1;fill-rule:nonzero;stroke:none"/><path d="m 106,77.5 0,1 0,1 0,1 c 0,3.324 2.676,6 6,6 l 62,0 c 3.324,0 6,-2.676 6,-6 l 0,-1 0,-1 0,-1 c 0,3.324 -2.676,6 -6,6 l -62,0 c -3.324,0 -6,-2.676 -6,-6 z" id="path3089" style="opacity:0.65;fill:url(#linearGradient3183);fill-opacity:1;fill-rule:nonzero;stroke:none"/><path d="m 106,79.5 0,1 c 0,3.324 2.676,6 6,6 l 62,0 c 1.23052,0 2.36247,-0.369434 3.3125,-1 L 112,85.5 c -3.324,0 -6,-2.676 -6,-6 z" id="path4122" style="opacity:0.15;fill:#ffffff;fill-opacity:1;fill-rule:nonzero;stroke:none"/></g></svg>